<svg width="17" height="17" viewBox="0 0 17 17" fill="none" xmlns="http://www.w3.org/2000/svg">
<path d="M10.6387 3.36675L15.3054 8.03341C15.572 8.30008 15.572 8.70008 15.3054 8.96675L10.6387 13.6334C10.3721 13.9001 9.97206 13.9001 9.7054 13.6334C9.43873 13.3667 9.43873 12.9667 9.7054 12.7001L13.2387 9.16675H2.83873C2.43873 9.16675 2.17206 8.90008 2.17206 8.50008C2.17206 8.10008 2.43873 7.83341 2.83873 7.83341H13.2387L9.7054 4.30008C9.57206 4.16675 9.50539 4.03341 9.50539 3.83341C9.50539 3.63341 9.57206 3.50008 9.7054 3.36675C9.97206 3.10008 10.3721 3.10008 10.6387 3.36675Z" fill="#FFFFFF"/>
</svg>
