<svg width="14" height="15" viewBox="0 0 14 15" fill="none" xmlns="http://www.w3.org/2000/svg">
<path fill-rule="evenodd" clip-rule="evenodd" d="M6.41702 7.35433C6.41592 7.33972 6.41536 7.32495 6.41536 7.31006V2.64339C6.41536 2.32139 6.67611 2.06006 6.9987 2.06006C7.32128 2.06006 7.58203 2.32139 7.58203 2.64339V7.30996L8.98203 6.26006C9.23986 6.06581 9.60562 6.11889 9.7987 6.37673C9.99236 6.63456 9.93987 7.00031 9.68203 7.19339L7.3487 8.94339C7.24545 9.02098 7.12178 9.06006 6.9987 9.06006C6.88145 9.06006 6.7642 9.02448 6.66328 8.95389L4.32995 7.31239C4.06628 7.12689 4.0027 6.76289 4.1882 6.49981C4.3737 6.23614 4.73711 6.17256 5.00078 6.35806L6.41702 7.35433ZM3.4987 10.2267V10.8101H10.4987V10.2267C10.4987 9.90589 10.7612 9.64339 11.082 9.64339C11.4029 9.64339 11.6654 9.90589 11.6654 10.2267V11.3934C11.6654 11.7143 11.4029 11.9768 11.082 11.9768H2.91536C2.59453 11.9768 2.33203 11.7143 2.33203 11.3934V10.2267C2.33203 9.90589 2.59453 9.64339 2.91536 9.64339C3.2362 9.64339 3.4987 9.90589 3.4987 10.2267Z" fill="#182CC0"/>
</svg>
