<svg width="165" height="33" viewBox="0 0 165 33" fill="none" xmlns="http://www.w3.org/2000/svg">
<path d="M81.72 12.81C79.88 12.81 78.61 14.2 78.61 15.9C78.61 17.6 79.76 18.99 81.72 18.99C83.68 18.99 84.82 17.6 84.82 15.9C84.82 14.2 83.56 12.81 81.72 12.81ZM68.36 10.11C71.21 10.11 72.96 12.32 72.96 15.49C72.96 17.97 72.08 19.87 70.49 21.4L68.55 19.77C69.45 18.76 70.26 17.19 70.26 15.5C70.26 13.69 69.35 12.58 68.02 12.58C66.69 12.58 65.75 13.44 65.75 15.25V17.82H63.04V15.25C63.04 13.44 62.1 12.58 60.77 12.58C59.44 12.58 58.53 13.69 58.53 15.5V15.66C58.58 17.3 59.36 18.8 60.24 19.78L58.3 21.41C56.71 19.88 55.83 17.99 55.83 15.51V15.37C55.88 12.27 57.61 10.13 60.43 10.13C62.42 10.13 63.83 11.03 64.39 12.38C64.96 11.03 66.36 10.13 68.35 10.13L68.36 10.11ZM152.31 10.11C155.79 10.11 157.99 12.71 157.99 15.83C157.99 18.17 157.22 19.96 155.83 21.4L153.88 19.79C154.97 18.39 155.29 17.12 155.29 15.84C155.29 14.01 154.27 12.57 152.32 12.57C150.37 12.57 149.35 14.01 149.35 15.84C149.35 17.12 149.66 18.39 150.76 19.79L148.81 21.4C147.42 19.96 146.65 18.17 146.65 15.83C146.65 12.72 148.85 10.11 152.33 10.11H152.31ZM124.49 5.79004V5.91004C124.49 7.12004 127.6 7.64004 127.6 10.03C127.6 11.21 126.67 12.03 125.56 12.28C127.46 12.89 128.64 14.39 128.64 16.55C128.64 19.42 126.49 21.52 122.94 21.52C120.37 21.52 118.17 20.08 117.6 17.61L120.04 16.6C120.43 18.09 121.54 19.05 122.94 19.05C124.91 19.05 125.91 17.9 125.91 16.5C125.91 14.86 124.76 13.82 122.94 13.82H121.27V11.37H122.79C124.1 11.37 124.87 10.88 124.87 10.04C124.87 8.50004 121.76 8.46004 121.76 5.98004V5.80004H124.49V5.79004ZM86.32 5.87004V8.32004H79.7C78.71 8.32004 78.37 8.91004 78.37 9.65004V11.75C79.15 10.56 80.85 10.2 82.01 10.2C85.51 10.2 87.53 12.72 87.53 15.9C87.53 19.08 85.35 21.6 81.72 21.6C78.09 21.6 75.67 19.17 75.67 15.4V9.73004C75.67 7.60004 77.11 5.87004 79.55 5.87004H86.33H86.32ZM136.74 14.79C134.48 15.27 133.59 17.28 133.54 19.17C133.6 21.34 134.75 23.66 137.81 23.66C140.87 23.66 142.02 21.34 142.08 19.17C142.03 17.31 141.18 15.35 139.01 14.82C139.08 15.21 139.22 16.1 139.22 16.81V18H136.51V16.81C136.51 16.09 136.66 15.16 136.73 14.79H136.74ZM139.23 10.4V10.97C139.23 11.39 139.18 11.89 139.12 12.3C143 12.86 144.81 15.95 144.81 19.17C144.81 22.73 142.59 26.13 137.81 26.13C133.03 26.13 130.81 22.73 130.81 19.17C130.81 15.92 132.66 12.8 136.62 12.29C136.56 11.88 136.51 11.4 136.51 10.98V10.41H139.22L139.23 10.4ZM100.78 10.4V10.52C100.78 12.01 101.93 12.36 101.93 13.93C101.93 15.42 100.96 16.17 99.56 16.45C101.58 17 102.64 18.38 102.64 20.66C102.64 23.7 100.44 26.12 96.64 26.12C92.84 26.12 90.66 23.57 90.66 20.44V10.39H93.37V20.44C93.37 22.09 94.47 23.64 96.64 23.64C98.81 23.64 99.91 22.19 99.91 20.59C99.91 18.81 98.76 17.66 96.94 17.66H96.48V15.21H97.52C98.56 15.21 99.19 14.66 99.19 13.82C99.19 12.6 98.04 12.38 98.04 10.56V10.38H100.77L100.78 10.4ZM110.29 10.11C113.6 10.11 115.64 12.03 115.64 15.46V20.85C115.64 23.9 113.54 26.13 110.17 26.13C107.15 26.13 105.04 24.48 104.7 21.44L107.18 20.75C107.4 22.68 108.49 23.66 110.03 23.66C112.07 23.66 112.91 22.4 112.91 20.8V15.49C112.91 13.83 112.02 12.57 110.29 12.57C108.56 12.57 107.65 13.83 107.65 15.49V16.46H104.94V15.47C104.94 12.05 106.97 10.12 110.29 10.12V10.11ZM52.59 10.4V12.78C52.59 14.45 51.9 15.63 50.61 16.28C52.54 16.99 53.69 18.58 53.69 20.86C53.69 23.91 51.54 26.14 47.99 26.14C45.42 26.14 43.22 24.7 42.65 22.23L45.09 21.22C45.48 22.71 46.59 23.67 47.99 23.67C49.96 23.67 50.96 22.41 50.96 20.81C50.96 19.03 49.81 17.82 47.99 17.82H46.2V15.37H47.38C49.07 15.37 49.86 14.38 49.86 12.99V10.42H52.59V10.4Z" fill="#141719"/>
<path d="M13.92 6.37977C14.03 6.43977 14.18 6.60977 14.21 6.63977C15.68 8.33977 18.41 12.8398 19.52 14.7298C20.91 17.0898 24.1 23.0198 24.37 23.7998C24.4 23.8798 24.37 23.9798 24.3 24.0298C24.22 24.0798 24.13 24.1198 23.9 23.8798C22.66 22.6298 19.79 20.1998 15.06 18.2798C14.81 18.1798 14.59 18.0898 14.38 17.9998C13.72 17.6698 13.35 17.1798 13.17 16.4998C12.64 14.4898 12.26 10.7398 12.78 7.49977C12.8 7.38977 12.86 6.99977 12.99 6.69977C13.2 6.24977 13.59 6.19977 13.91 6.37977H13.92ZM12.14 5.93977C12.23 5.97977 12.3 6.03977 12.21 6.34977C11.74 8.04977 11.07 11.7398 11.76 16.7898C11.8 17.0498 11.83 17.2898 11.85 17.5198C11.89 18.2598 11.65 18.8198 11.16 19.3098C9.68001 20.7698 6.62001 22.9698 3.55001 24.1398C3.44001 24.1798 3.08001 24.3198 2.75001 24.3498C2.25001 24.3998 2.01001 24.0898 2.01001 23.7198C2.01001 23.5898 2.08001 23.3798 2.09001 23.3398C2.83001 21.2198 5.38001 16.6098 6.46001 14.7098C7.81001 12.3298 11.37 6.60977 11.91 5.97977C11.96 5.90977 12.06 5.87977 12.14 5.91977V5.93977ZM14.62 19.6398C16.63 20.1898 20.07 21.7298 22.62 23.7998C22.71 23.8698 23.01 24.1198 23.2 24.3798C23.49 24.7898 23.34 25.1498 23.02 25.3298C22.91 25.3898 22.69 25.4398 22.65 25.4498C20.44 25.8698 15.17 25.9798 12.98 25.9898C10.24 26.0098 3.49001 25.7998 2.68001 25.6498C2.59001 25.6398 2.52001 25.5698 2.51001 25.4798C2.51001 25.3798 2.51001 25.2898 2.83001 25.2098C4.54001 24.7598 8.08001 23.4998 12.11 20.3698C12.32 20.2098 12.51 20.0598 12.69 19.9298C13.31 19.5198 13.92 19.4498 14.59 19.6298L14.62 19.6398Z" fill="#141719"/>
<path d="M34.05 1.2998H33.06V30.6198H34.05V1.2998Z" fill="#141719"/>
</svg>
