<svg width="21" height="33" viewBox="0 0 21 33" fill="none" xmlns="http://www.w3.org/2000/svg">
<path d="M9.22565 17.8468C9.23201 17.907 9.23563 17.9762 9.23563 18.0463C9.23563 18.6271 8.98712 19.1504 8.59022 19.5191L8.58935 19.52C6.57306 21.3776 4.20273 22.8925 1.59389 23.9508L1.43914 24.0065C1.22341 24.0947 0.971262 24.1638 0.710016 24.2016L0.69272 24.2035C0.656308 24.2115 0.614437 24.216 0.571651 24.216C0.255787 24.216 0 23.9634 0 23.6514C0 23.6397 0 23.6271 0.000910274 23.6154V23.6172C0.0109233 23.4896 0.0373212 23.37 0.0773733 23.2585L0.0746422 23.2684C0.775553 21.2966 3.14954 17.0142 4.1736 15.2492C5.44707 13.0383 8.78687 7.71916 9.2848 7.13564C9.31758 7.09338 9.36763 7.06641 9.42498 7.06641C9.45321 7.06641 9.48051 7.0727 9.50419 7.08529L9.50326 7.08439C9.58609 7.12395 9.65434 7.1752 9.57063 7.47011C9.13366 9.04625 8.50016 12.479 9.15553 17.1724C9.18919 17.4151 9.22653 17.6372 9.22653 17.8468H9.22565Z" fill="#555F62"/>
<path d="M10.0439 20.1011C10.3717 19.8709 10.7804 19.7334 11.2219 19.7334C11.4394 19.7334 11.6488 19.7666 11.8454 19.8287L11.8308 19.8251C14.71 20.708 17.2096 22.0288 19.3925 23.729L19.3433 23.6921C19.549 23.8522 19.7293 24.0293 19.8858 24.2262L19.8913 24.2325C19.9832 24.3332 20.0396 24.4663 20.0396 24.6129C20.0396 24.8323 19.9131 25.0228 19.7284 25.1173L19.7247 25.119C19.6255 25.1667 19.5099 25.2054 19.3888 25.2269L19.3807 25.2278C17.3052 25.6163 12.3533 25.7169 10.2997 25.7322C7.72548 25.7502 1.39728 25.5533 0.630826 25.4284C0.547991 25.4166 0.483362 25.3501 0.47699 25.2683V25.2674C0.47699 25.1766 0.47699 25.0939 0.784662 25.0183C2.38674 24.6021 5.70469 23.4269 9.49963 20.5228C9.69353 20.3591 9.8683 20.2189 10.0439 20.1002V20.1011Z" fill="#555F62"/>
<path d="M11.6187 18.2836C11.048 18.0175 10.6283 17.5158 10.4836 16.9089L10.4809 16.8954C10.104 15.3489 9.88831 13.5741 9.88831 11.7489C9.88831 10.6142 9.97201 9.49933 10.1331 8.4096L10.1177 8.53368C10.1568 8.25855 10.2269 8.0095 10.3252 7.77573L10.3179 7.79551C10.3944 7.56444 10.6111 7.3999 10.8659 7.3999C10.9824 7.3999 11.0907 7.43407 11.1809 7.49251L11.179 7.49161C11.2801 7.56264 11.3675 7.64176 11.4449 7.72988L11.4467 7.73167C12.8248 9.31411 15.3891 13.5031 16.4286 15.2464C17.7294 17.4393 20.7342 22.9527 20.9863 23.6756C20.9945 23.6954 21 23.7187 21 23.743C21 23.8033 20.969 23.8563 20.9226 23.8887H20.9217C20.8452 23.9399 20.7679 23.9705 20.553 23.7547C19.3752 22.594 16.6935 20.3345 12.2532 18.548C12.0192 18.4571 11.8108 18.3744 11.6196 18.2836H11.6187Z" fill="#555F62"/>
</svg>
