<svg width="25" height="25" viewBox="0 0 25 25" fill="none" xmlns="http://www.w3.org/2000/svg">
<path d="M22.54 20.8L16.34 14.5C17.34 13.2 17.84 11.7 17.84 10C17.84 5.9 14.44 2.5 10.34 2.5C6.24003 2.5 2.84003 5.9 2.84003 10C2.84003 14.1 6.24003 17.5 10.34 17.5C12.04 17.5 13.64 16.9 14.84 16L21.04 22.2C21.24 22.4 21.54 22.5 21.74 22.5C21.94 22.5 22.24 22.4 22.44 22.2C22.94 21.8 22.94 21.2 22.54 20.8ZM4.84003 10C4.84003 7 7.34003 4.5 10.34 4.5C13.34 4.5 15.84 7 15.84 10C15.84 13 13.34 15.5 10.34 15.5C7.34003 15.5 4.84003 13 4.84003 10Z" fill="#555F62"/>
</svg>
