<svg width="17" height="17" viewBox="0 0 17 17" fill="none" xmlns="http://www.w3.org/2000/svg">
<path d="M8 0.410156C5.829 0.410156 5.556 0.420156 4.703 0.458156C3.85 0.498156 3.269 0.632156 2.76 0.830156C2.22584 1.03048 1.74214 1.34555 1.343 1.75316C0.935398 2.1523 0.620326 2.636 0.42 3.17016C0.222 3.67816 0.087 4.26016 0.048 5.11016C0.01 5.96516 0 6.23716 0 8.41116C0 10.5832 0.01 10.8552 0.048 11.7082C0.088 12.5602 0.222 13.1412 0.42 13.6502C0.625 14.1762 0.898 14.6222 1.343 15.0672C1.787 15.5122 2.233 15.7862 2.759 15.9902C3.269 16.1882 3.849 16.3232 4.701 16.3622C5.555 16.4002 5.827 16.4102 8 16.4102C10.173 16.4102 10.444 16.4002 11.298 16.3622C12.149 16.3222 12.732 16.1882 13.241 15.9902C13.7748 15.7897 14.2581 15.4746 14.657 15.0672C15.102 14.6222 15.375 14.1762 15.58 13.6502C15.777 13.1412 15.912 12.5602 15.952 11.7082C15.99 10.8552 16 10.5832 16 8.41016C16 6.23716 15.99 5.96516 15.952 5.11116C15.912 4.26016 15.777 3.67816 15.58 3.17016C15.3797 2.636 15.0646 2.1523 14.657 1.75316C14.2579 1.34555 13.7742 1.03048 13.24 0.830156C12.73 0.632156 12.148 0.497156 11.297 0.458156C10.443 0.420156 10.172 0.410156 7.998 0.410156H8ZM7.283 1.85216H8.001C10.137 1.85216 10.39 1.85916 11.233 1.89816C12.013 1.93316 12.437 2.06416 12.719 2.17316C13.092 2.31816 13.359 2.49216 13.639 2.77216C13.919 3.05216 14.092 3.31816 14.237 3.69216C14.347 3.97316 14.477 4.39716 14.512 5.17716C14.551 6.02016 14.559 6.27316 14.559 8.40816C14.559 10.5432 14.551 10.7972 14.512 11.6402C14.477 12.4202 14.346 12.8432 14.237 13.1252C14.1078 13.4721 13.9032 13.7859 13.638 14.0442C13.358 14.3242 13.092 14.4972 12.718 14.6422C12.438 14.7522 12.014 14.8822 11.233 14.9182C10.39 14.9562 10.137 14.9652 8.001 14.9652C5.865 14.9652 5.611 14.9562 4.768 14.9182C3.988 14.8822 3.565 14.7522 3.283 14.6422C2.93583 14.5134 2.6216 14.3092 2.363 14.0442C2.09727 13.7858 1.89233 13.4715 1.763 13.1242C1.654 12.8432 1.523 12.4192 1.488 11.6392C1.45 10.7962 1.442 10.5432 1.442 8.40616C1.442 6.26916 1.45 6.01816 1.488 5.17516C1.524 4.39516 1.654 3.97116 1.764 3.68916C1.909 3.31616 2.083 3.04916 2.363 2.76916C2.643 2.48916 2.909 2.31616 3.283 2.17116C3.565 2.06116 3.988 1.93116 4.768 1.89516C5.506 1.86116 5.792 1.85116 7.283 1.85016V1.85216ZM12.271 3.18016C12.1449 3.18016 12.0201 3.20499 11.9036 3.25323C11.7872 3.30148 11.6813 3.37219 11.5922 3.46133C11.503 3.55048 11.4323 3.65631 11.3841 3.77278C11.3358 3.88925 11.311 4.01409 11.311 4.14016C11.311 4.26623 11.3358 4.39106 11.3841 4.50753C11.4323 4.624 11.503 4.72983 11.5922 4.81898C11.6813 4.90812 11.7872 4.97884 11.9036 5.02708C12.0201 5.07533 12.1449 5.10016 12.271 5.10016C12.5256 5.10016 12.7698 4.99901 12.9498 4.81898C13.1299 4.63894 13.231 4.39476 13.231 4.14016C13.231 3.88555 13.1299 3.64137 12.9498 3.46133C12.7698 3.2813 12.5256 3.18016 12.271 3.18016ZM8.001 4.30216C7.45607 4.29365 6.91489 4.39364 6.40898 4.5963C5.90306 4.79895 5.44251 5.10023 5.05415 5.48258C4.66579 5.86493 4.35736 6.32072 4.14684 6.82342C3.93632 7.32611 3.8279 7.86566 3.8279 8.41066C3.8279 8.95565 3.93632 9.4952 4.14684 9.9979C4.35736 10.5006 4.66579 10.9564 5.05415 11.3387C5.44251 11.7211 5.90306 12.0224 6.40898 12.225C6.91489 12.4277 7.45607 12.5277 8.001 12.5192C9.07954 12.5023 10.1082 12.0621 10.865 11.2934C11.6217 10.5247 12.0459 9.48933 12.0459 8.41066C12.0459 7.33198 11.6217 6.29657 10.865 5.52791C10.1082 4.75924 9.07954 4.31898 8.001 4.30216ZM8.001 5.74316C8.35124 5.74316 8.69804 5.81214 9.02162 5.94617C9.34519 6.0802 9.6392 6.27665 9.88685 6.5243C10.1345 6.77196 10.331 7.06596 10.465 7.38954C10.599 7.71312 10.668 8.05992 10.668 8.41016C10.668 8.76039 10.599 9.1072 10.465 9.43077C10.331 9.75435 10.1345 10.0484 9.88685 10.296C9.6392 10.5437 9.34519 10.7401 9.02162 10.8741C8.69804 11.0082 8.35124 11.0772 8.001 11.0772C7.29367 11.0772 6.61531 10.7962 6.11515 10.296C5.61499 9.79585 5.334 9.11749 5.334 8.41016C5.334 7.70282 5.61499 7.02446 6.11515 6.5243C6.61531 6.02414 7.29367 5.74316 8.001 5.74316Z" fill="#555F62"/>
</svg>
