<svg width="18" height="28" viewBox="0 0 18 28" fill="none" xmlns="http://www.w3.org/2000/svg">
<path fill-rule="evenodd" clip-rule="evenodd" d="M3.16797 12.2361C3.16797 9.32343 5.56064 6.9541 8.5013 6.9541C11.442 6.9541 13.8346 9.32343 13.8346 12.2361C13.8346 15.8855 9.1353 19.9555 8.9353 20.1268C8.80997 20.2341 8.65597 20.2875 8.5013 20.2875C8.34664 20.2875 8.19264 20.2341 8.0673 20.1268C7.8673 19.9555 3.16797 15.8855 3.16797 12.2361ZM8.5013 14.2874C7.21464 14.2874 6.16797 13.2408 6.16797 11.9541C6.16797 10.6674 7.21464 9.62077 8.5013 9.62077C9.78797 9.62077 10.8346 10.6674 10.8346 11.9541C10.8346 13.2408 9.78797 14.2874 8.5013 14.2874ZM8.5013 10.9541C7.94997 10.9541 7.5013 11.4028 7.5013 11.9541C7.5013 12.5054 7.94997 12.9541 8.5013 12.9541C9.05264 12.9541 9.5013 12.5054 9.5013 11.9541C9.5013 11.4028 9.05264 10.9541 8.5013 10.9541Z" fill="#555F62"/>
</svg>
