<svg width="44" height="41" viewBox="0 0 44 41" fill="none" xmlns="http://www.w3.org/2000/svg">
<path d="M15.8154 19.4308C15.8263 19.534 15.8325 19.6527 15.8325 19.7729C15.8325 20.7686 15.4065 21.6657 14.7261 22.2976L14.7246 22.2992C11.2681 25.4836 7.20468 28.0807 2.73238 29.8949L2.4671 29.9904C2.09727 30.1415 1.66502 30.2601 1.21717 30.3249L1.18752 30.328C1.1251 30.3418 1.05332 30.3495 0.979974 30.3495C0.438492 30.3495 0 29.9164 0 29.3816C0 29.3616 0 29.34 0.00156047 29.3199V29.323C0.0187256 29.1042 0.0639792 28.8992 0.13264 28.708L0.127958 28.725C1.32952 25.3448 5.39922 18.0035 7.15475 14.9779C9.33784 11.1877 15.0632 2.06921 15.9168 1.06888C15.973 0.996435 16.0588 0.950195 16.1571 0.950195C16.2055 0.950195 16.2523 0.960985 16.2929 0.982563L16.2913 0.981022C16.4333 1.04884 16.5503 1.1367 16.4068 1.64225C15.6577 4.34421 14.5717 10.229 15.6952 18.2748C15.7529 18.6909 15.8169 19.0716 15.8169 19.4308H15.8154Z" fill="#141719"/>
<path d="M17.2181 23.295C17.7799 22.9004 18.4806 22.6646 19.2374 22.6646C19.6103 22.6646 19.9692 22.7216 20.3063 22.8279L20.2813 22.8218C25.2171 24.3354 29.5021 26.5996 33.2442 29.5142L33.1599 29.451C33.5125 29.7254 33.8215 30.029 34.0899 30.3666L34.0993 30.3773C34.2569 30.5499 34.3536 30.7781 34.3536 31.0294C34.3536 31.4055 34.1367 31.7322 33.82 31.8941L33.8137 31.8971C33.6436 31.9788 33.4454 32.0451 33.2379 32.0821L33.2239 32.0836C29.666 32.7495 21.177 32.922 17.6566 32.9482C13.2436 32.9791 2.39527 32.6416 1.08135 32.4274C0.939344 32.4073 0.828551 32.2933 0.817627 32.153V32.1515C0.817627 31.9958 0.817627 31.854 1.34507 31.7245C4.09149 31.0109 9.7794 28.9964 16.285 24.0179C16.6174 23.7373 16.917 23.4969 17.2181 23.2934V23.295Z" fill="#141719"/>
<path d="M19.9178 20.1797C18.9394 19.7235 18.22 18.8635 17.9719 17.8231L17.9672 17.7999C17.3212 15.1488 16.9514 12.1063 16.9514 8.97739C16.9514 7.03223 17.0949 5.12098 17.3711 3.25288L17.3446 3.46559C17.4117 2.99394 17.5319 2.56699 17.7004 2.16625L17.6879 2.20015C17.819 1.80404 18.1904 1.52197 18.6273 1.52197C18.827 1.52197 19.0127 1.58054 19.1672 1.68073L19.1641 1.67919C19.3373 1.80095 19.4871 1.93659 19.6198 2.08764L19.6229 2.09072C21.9854 4.80346 26.3813 11.9845 28.1633 14.9731C30.3932 18.7324 35.5443 28.1839 35.9766 29.4231C35.9906 29.457 36 29.4971 36 29.5387C36 29.642 35.9469 29.7329 35.8674 29.7884H35.8658C35.7347 29.8763 35.6021 29.9287 35.2338 29.5587C33.2146 27.5689 28.6174 23.6955 21.0055 20.6329C20.6044 20.4772 20.2471 20.3354 19.9194 20.1797H19.9178Z" fill="#141719"/>
</svg>
