<svg width="36" height="33" viewBox="0 0 36 33" fill="none" xmlns="http://www.w3.org/2000/svg">
<path d="M15.8154 18.9806C15.8263 19.0838 15.8325 19.2025 15.8325 19.3227C15.8325 20.3184 15.4065 21.2155 14.7261 21.8474L14.7246 21.849C11.2681 25.0334 7.20468 27.6305 2.73238 29.4447L2.4671 29.5402C2.09727 29.6913 1.66502 29.8099 1.21717 29.8747L1.18752 29.8778C1.1251 29.8916 1.05332 29.8993 0.979974 29.8993C0.438492 29.8993 0 29.4662 0 28.9314C0 28.9114 0 28.8898 0.00156047 28.8697V28.8728C0.0187256 28.654 0.0639792 28.449 0.13264 28.2578L0.127958 28.2748C1.32952 24.8946 5.39922 17.5533 7.15475 14.5277C9.33784 10.7375 15.0632 1.61901 15.9168 0.618682C15.973 0.54624 16.0588 0.5 16.1571 0.5C16.2055 0.5 16.2523 0.510789 16.2929 0.532368L16.2913 0.530827C16.4333 0.598645 16.5503 0.686501 16.4068 1.19206C15.6577 3.89401 14.5717 9.77881 15.6952 17.8246C15.7529 18.2407 15.8169 18.6214 15.8169 18.9806H15.8154Z" fill="#555F62"/>
<path d="M17.2181 22.8447C17.7799 22.4501 18.4806 22.2143 19.2374 22.2143C19.6103 22.2143 19.9692 22.2713 20.3063 22.3776L20.2813 22.3715C25.2171 23.8851 29.5021 26.1493 33.2442 29.0639L33.1599 29.0007C33.5125 29.2751 33.8215 29.5787 34.0899 29.9163L34.0993 29.9271C34.2569 30.0997 34.3536 30.3278 34.3536 30.5791C34.3536 30.9552 34.1367 31.2819 33.82 31.4438L33.8137 31.4468C33.6436 31.5285 33.4454 31.5948 33.2379 31.6318L33.2239 31.6333C29.666 32.2992 21.177 32.4718 17.6566 32.498C13.2436 32.5289 2.39527 32.1913 1.08135 31.9771C0.939344 31.957 0.828551 31.843 0.817627 31.7027V31.7012C0.817627 31.5455 0.817627 31.4037 1.34507 31.2742C4.09149 30.5606 9.7794 28.5461 16.285 23.5676C16.6174 23.287 16.917 23.0466 17.2181 22.8431V22.8447Z" fill="#555F62"/>
<path d="M19.9178 19.7296C18.9394 19.2734 18.22 18.4134 17.9719 17.373L17.9672 17.3498C17.3212 14.6987 16.9514 11.6562 16.9514 8.52726C16.9514 6.5821 17.0949 4.67085 17.3711 2.80275L17.3446 3.01546C17.4117 2.54381 17.5319 2.11686 17.7004 1.71612L17.6879 1.75002C17.819 1.3539 18.1904 1.07184 18.6273 1.07184C18.827 1.07184 19.0127 1.13041 19.1672 1.2306L19.1641 1.22905C19.3373 1.35082 19.4871 1.48646 19.6198 1.63751L19.6229 1.64059C21.9854 4.35333 26.3813 11.5344 28.1633 14.523C30.3932 18.2823 35.5443 27.7338 35.9766 28.973C35.9906 29.0069 36 29.047 36 29.0886C36 29.1919 35.9469 29.2828 35.8674 29.3383H35.8658C35.7347 29.4262 35.6021 29.4786 35.2338 29.1086C33.2146 27.1188 28.6174 23.2454 21.0055 20.1828C20.6044 20.0271 20.2471 19.8853 19.9194 19.7296H19.9178Z" fill="#555F62"/>
</svg>
