<svg width="18" height="28" viewBox="0 0 18 28" fill="none" xmlns="http://www.w3.org/2000/svg">
<path d="M12.0987 20.9076C6.43736 20.9076 1.83203 16.3022 1.83203 10.6409C1.83203 8.94955 3.20803 7.57422 4.8987 7.57422C5.07203 7.57422 5.24336 7.58889 5.40936 7.61755C5.57136 7.64355 5.7347 7.68489 5.8927 7.73955C6.11003 7.81489 6.2727 7.99689 6.32403 8.22089L7.23736 12.1969C7.28736 12.4155 7.22403 12.6449 7.0687 12.8075C6.97736 12.9022 6.97536 12.9042 6.1487 13.3369C6.81803 14.7862 7.98136 15.9455 9.40203 16.5922C9.8347 15.7649 9.83736 15.7622 9.93203 15.6715C10.0954 15.5155 10.3254 15.4549 10.5434 15.5029L14.5194 16.4156C14.7427 16.4669 14.9247 16.6296 15 16.8462C15.0547 17.0036 15.0954 17.1662 15.1227 17.3336C15.1507 17.4982 15.1654 17.6689 15.1654 17.8409C15.1654 19.5322 13.79 20.9076 12.0987 20.9076Z" fill="#555F62"/>
</svg>
